# xmcd
#
# Track frame offsets:
#	150
#	5724
#	19400
#	29753
#	43446
#	47487
#	65570
#	78623
#	89004
#	134631
#	140644
#	149493
#	160219
#	169858
#	188367
#	199593
#	215843
#	220551
#	237206
#	251203
#	262069
#	276039
#	290871
#	299468
#	313447
#
# Disc length: 4365 seconds
#
# Revision: 1
# Processed by: cddbd v1.4PL0 Copyright (c) Steve Scherf et al.
# Submitted via: audiograbber 1.81.03
#
DISCID=a6110b19
DTITLE=Back Porch Delivery - Back Porch Delivery
DYEAR=2001
DGENRE=
TTITLE0=Dallas Rag
TTITLE1=Hungry Hash House
TTITLE2=Dixie Breakdown
TTITLE3=Before I Met You
TTITLE4=Ed's Meditation
TTITLE5=In the Pines
TTITLE6=Wednesday Afternoon At the Tennis Court
TTITLE7=Deep Blue Sea
TTITLE8=Mountain Medley
TTITLE9=Jew's Harper
TTITLE10=Wildwood Flower
TTITLE11=Cripple Creek
TTITLE12=Somebody Stole My Gal
TTITLE13=Richland Woman Blues
TTITLE14=Temptation Rag
TTITLE15=Why Should I Be So Lonely
TTITLE16=Buddha Bit
TTITLE17=Ukelele Lady
TTITLE18=Long Tall Texan
TTITLE19=Take It Slow and Easy
TTITLE20=Make Me a Pallet
TTITLE21=Lowland Low
TTITLE22=Gray Waltz
TTITLE23=Ain't Misbehavin'
TTITLE24=Over the Waterfall
EXTD=
EXTT0=
EXTT1=
EXTT2=
EXTT3=
EXTT4=
EXTT5=
EXTT6=
EXTT7=
EXTT8=
EXTT9=
EXTT10=
EXTT11=
EXTT12=
EXTT13=
EXTT14=
EXTT15=
EXTT16=
EXTT17=
EXTT18=
EXTT19=
EXTT20=
EXTT21=
EXTT22=
EXTT23=
EXTT24=
PLAYORDER=
